<?xml version="1.0" encoding="iso-8859-1"?>
<!-- Generator: Adobe Illustrator 18.0.0, SVG Export Plug-In . SVG Version: 6.00 Build 0)  -->
<!DOCTYPE svg PUBLIC "-//W3C//DTD SVG 1.1//EN" "http://www.w3.org/Graphics/SVG/1.1/DTD/svg11.dtd">
<svg version="1.1" id="_x32_" xmlns="http://www.w3.org/2000/svg" xmlns:xlink="http://www.w3.org/1999/xlink" x="0px" y="0px"
	 viewBox="0 0 512 512" style="enable-background:new 0 0 512 512;" xml:space="preserve">
<g>
	<rect style="fill:#EBE5D3;" width="512" height="512"/>
	<path style="opacity:0.1;fill:#040000;" d="M512,276.173V512H274.381L154.265,391.885l-19.558-19.558
		c-0.205-0.922-0.307-1.843-0.307-2.765V302.08c0-0.153,0-0.256,0.051-0.409c-0.051-0.103-0.051-0.154,0-0.205
		c0-0.359,0.051-0.717,0.102-1.075c0-0.41,0.051-0.82,0.205-1.229c-0.051-0.102,0-0.204,0.051-0.307c0-0.103,0-0.256,0.051-0.41
		c0.102-0.307,0.154-0.665,0.307-0.973c0.154-0.461,0.358-0.973,0.563-1.485c-0.205-0.512-0.409-1.024-0.563-1.485
		c-0.153-0.511-0.307-0.973-0.41-1.484c0,0,0-0.051,0-0.103c-0.153-0.409-0.205-0.871-0.256-1.331
		c-0.051-0.563-0.102-1.075-0.102-1.638v-67.482c0-0.512,0.051-1.024,0.102-1.536c0.051-0.512,0.102-1.024,0.256-1.536
		c0-0.154,0.051-0.359,0.102-0.512h0.051c0.153-0.819,0.461-1.689,0.819-2.509c-0.205-0.46-0.409-0.973-0.563-1.484
		c-0.153-0.409-0.256-0.819-0.358-1.229c-0.051-0.154-0.102-0.358-0.102-0.512c-0.103-0.41-0.154-0.768-0.205-1.178
		c-0.051-0.564-0.102-1.076-0.102-1.639v-67.481c0-22.733,54.425-41.216,121.6-41.216c40.55,0,76.442,6.759,98.56,17.101
		l1.331,1.331l21.607,21.607L512,276.173z"/>
	<g>
		<g>
			<g>
				<g>
					<path style="fill:#666D75;" d="M377.6,302.285v67.277c0,22.528-54.426,40.756-121.6,40.756
						c-42.548,0-80.026-7.322-101.735-18.432c-11.161-5.683-18.125-12.339-19.558-19.558c-0.205-0.922-0.307-1.843-0.307-2.765
						v-67.277c0-0.205,0-0.409,0.051-0.614c-0.051-0.103-0.051-0.154,0-0.205c0-0.359,0.051-0.717,0.102-1.075
						c0.051-0.154,0.051-0.307,0.103-0.461c0.051-0.41,0.154-0.819,0.307-1.229v-0.051c0.205-0.819,0.512-1.587,0.87-2.406
						c6.759-14.694,36.915-26.829,77.363-31.897c5.274-0.666,10.752-1.229,16.333-1.639h0.307
						c8.448-0.666,17.203-0.973,26.163-0.973c8.96,0,17.715,0.307,26.163,0.973h0.307c5.581,0.41,11.059,0.973,16.333,1.639
						c40.448,5.069,70.605,17.203,77.363,31.897c0.358,0.819,0.666,1.587,0.87,2.406v0.051c0.154,0.41,0.256,0.819,0.307,1.229
						c0.103,0.512,0.154,0.973,0.205,1.536v0.205C377.6,301.876,377.6,302.08,377.6,302.285z"/>
					<path style="opacity:0.1;fill:#E8E8E9;" d="M377.6,302.49v3.226c0,22.528-54.426,40.806-121.6,40.806
						c-67.175,0-121.6-18.278-121.6-40.806v-3.226c0,0.512,0.051,0.973,0.102,1.434c1.587,15.872,30.31,29.491,71.117,35.686
						c1.433,0.205,2.816,0.41,4.25,0.614c2.304,0.358,4.608,0.666,6.963,0.922c0.973,0.051,1.997,0.154,3.021,0.307
						c5.683,0.614,11.571,1.076,17.613,1.383c4.045,0.204,8.141,0.358,12.288,0.409c2.048,0.051,4.147,0.051,6.247,0.051
						c2.099,0,4.198,0,6.246-0.051c4.147-0.051,8.243-0.205,12.288-0.409c6.042-0.307,11.929-0.768,17.613-1.383
						c1.024-0.153,2.048-0.256,3.021-0.307c2.355-0.256,4.659-0.564,6.963-0.922c1.434-0.204,2.816-0.409,4.25-0.614
						c40.807-6.195,69.53-19.814,71.117-35.686C377.549,303.462,377.6,303.002,377.6,302.49z"/>
					<path style="fill:#E9E8E8;" d="M377.6,302.08v0.41c0,0.512-0.051,0.973-0.103,1.434c-2.15,15.923-30.72,29.389-71.117,35.686
						c-1.433,0.205-2.816,0.41-4.25,0.614c-1.433,0.205-2.867,0.358-4.301,0.563c-0.87,0.103-1.792,0.205-2.663,0.359
						c-0.973,0.051-1.997,0.154-3.021,0.307c-3.789,0.358-7.68,0.717-11.622,0.973c-1.997,0.154-3.994,0.307-5.99,0.409
						c-4.045,0.154-8.141,0.307-12.288,0.409c-2.048,0.051-4.147,0.051-6.246,0.051c-2.099,0-4.198,0-6.247-0.051
						c-4.147-0.103-8.243-0.256-12.288-0.409c-1.997-0.103-3.993-0.256-5.99-0.409c-3.943-0.256-7.833-0.615-11.623-0.973
						c-1.024-0.153-2.048-0.256-3.021-0.307c-0.87-0.154-1.792-0.256-2.663-0.359c-1.433-0.205-2.867-0.358-4.301-0.563
						c-1.434-0.204-2.816-0.409-4.25-0.614c-40.397-6.297-68.967-19.763-71.117-35.686c-0.051-0.461-0.102-0.922-0.102-1.434v-0.41
						c0-0.153,0-0.256,0.051-0.409c-0.051-0.103-0.051-0.154,0-0.205c0.051-0.564,0.102-1.024,0.205-1.536
						c0.051-0.256,0.102-0.512,0.102-0.768c-0.051-0.102,0-0.204,0.051-0.307c0-0.103,0-0.256,0.051-0.41
						c0.102-0.307,0.154-0.665,0.307-0.973c0.154-0.461,0.358-0.973,0.563-1.485c6.349-14.592,35.277-26.675,74.342-32.051
						c4.659-0.665,9.472-1.229,14.439-1.638c0.051-0.051,0.153-0.051,0.205-0.051c9.984-0.922,20.48-1.382,31.283-1.382
						c10.803,0,21.299,0.461,31.283,1.382c0.051,0,0.154,0,0.205,0.051c4.967,0.409,9.779,0.973,14.439,1.638
						c39.066,5.376,67.994,17.459,74.342,32.051c0.359,0.819,0.666,1.639,0.87,2.458c0.102,0.512,0.102,0.973,0.205,1.485
						c0.103,0.512,0.154,0.973,0.205,1.536v0.205C377.549,301.773,377.6,301.927,377.6,302.08z"/>
				</g>
				<path style="fill:#E9E8E8;" d="M337.394,358.74v18.804c-9.796,2.962-21.034,5.395-33.33,7.167v-18.804
					C316.36,364.135,327.598,361.702,337.394,358.74z"/>
			</g>
			<path style="opacity:0.3;fill:#040000;" d="M377.139,298.445c-0.051,0.102-0.051,0.154-0.103,0.205v0.051
				c-5.734,20.685-57.702,36.864-121.037,36.864c-63.335,0-115.303-16.179-121.037-36.864v-0.051
				c-0.051-0.051-0.051-0.103-0.051-0.154l-0.051-0.051c0.102-0.307,0.154-0.665,0.307-0.973c0.154-0.461,0.358-0.973,0.563-1.485
				c6.349-14.592,35.277-26.675,74.342-32.051c4.659-0.665,9.472-1.229,14.439-1.638c0.051-0.051,0.153-0.051,0.205-0.051
				c9.984-0.922,20.48-1.382,31.283-1.382c10.803,0,21.299,0.461,31.283,1.382c0.051,0,0.154,0,0.205,0.051
				c4.967,0.409,9.779,0.973,14.439,1.638c39.066,5.376,67.994,17.459,74.342,32.051
				C376.627,296.807,376.934,297.626,377.139,298.445z"/>
			<g>
				<g>
					<path style="fill:#666D75;" d="M377.6,222.72v67.226c0,2.048-0.461,4.096-1.331,6.041c-0.051,0.103-0.102,0.205-0.102,0.256
						c-9.063,19.558-59.392,34.457-120.166,34.457c-60.775,0-111.104-14.899-120.167-34.457c0-0.051-0.051-0.154-0.102-0.256
						c-0.205-0.512-0.409-1.024-0.563-1.485c-0.153-0.511-0.307-0.973-0.41-1.484c0,0,0-0.051,0-0.103
						c-0.153-0.409-0.205-0.871-0.256-1.331c-0.051-0.563-0.102-1.075-0.102-1.638v-67.277c0-1.178,0.205-2.407,0.512-3.533
						c0.051-0.103,0.051-0.205,0.102-0.256c0.205-0.768,0.512-1.536,0.819-2.253c6.81-14.694,37.018-26.829,77.414-31.898
						c5.274-0.666,10.701-1.229,16.282-1.639c8.499-0.614,17.357-0.972,26.471-0.972c9.113,0,17.971,0.359,26.47,0.972
						c5.581,0.41,11.008,0.973,16.282,1.639c40.397,5.069,70.605,17.203,77.414,31.898c0.307,0.717,0.614,1.485,0.819,2.253
						c0.051,0.051,0.051,0.154,0.103,0.256C377.395,220.314,377.6,221.491,377.6,222.72z"/>
					<path style="opacity:0.1;fill:#E8E8E9;" d="M377.6,222.925v3.226c0,17.049-31.283,31.641-75.674,37.785
						c-1.024,0.102-2.099,0.256-3.123,0.41c-13.312,1.638-27.751,2.56-42.803,2.56c-15.053,0-29.491-0.922-42.803-2.56
						c-1.024-0.154-2.099-0.308-3.123-0.41c-44.39-6.144-75.673-20.736-75.673-37.785v-3.226c0,0.461,0.051,0.973,0.102,1.434
						c1.638,16.231,31.744,30.106,74.138,36.096c0.409,0.051,0.819,0.103,1.229,0.154c3.277,0.511,6.553,0.87,9.984,1.229
						c1.536,0.154,3.072,0.307,4.659,0.461c1.638,0.153,3.328,0.307,5.017,0.409h0.307c6.451,0.513,13.107,0.819,19.917,0.922
						c2.048,0.051,4.147,0.051,6.247,0.051c2.099,0,4.198,0,6.246-0.051c6.81-0.103,13.466-0.409,19.917-0.922h0.307
						c1.69-0.102,3.379-0.256,5.017-0.409c1.587-0.154,3.123-0.307,4.659-0.461c3.43-0.359,6.707-0.717,9.984-1.229l1.229-0.154
						c42.393-5.991,72.499-19.866,74.138-36.096C377.549,223.898,377.6,223.386,377.6,222.925z"/>
					<path style="fill:#E9E8E8;" d="M377.6,222.464v0.461c0,0.461-0.051,0.973-0.103,1.434
						c-2.202,16.231-32.154,30.003-74.138,36.096l-1.229,0.154c-1.433,0.204-2.867,0.358-4.301,0.563
						c-1.894,0.205-3.738,0.41-5.683,0.666c-1.587,0.154-3.226,0.307-4.864,0.409c-1.69,0.153-3.379,0.307-5.12,0.461
						c-0.563,0-1.075,0.051-1.638,0.103c-1.997,0.154-3.994,0.256-5.99,0.359c-4.045,0.204-8.141,0.358-12.288,0.461h-12.493
						c-4.147-0.103-8.243-0.256-12.288-0.461c-1.997-0.102-3.993-0.205-5.99-0.359c-0.563-0.051-1.075-0.103-1.638-0.103
						c-1.741-0.154-3.43-0.307-5.12-0.461c-1.639-0.102-3.277-0.256-4.864-0.409c-1.945-0.256-3.789-0.461-5.683-0.666
						c-1.433-0.204-2.867-0.358-4.301-0.563c-0.41-0.051-0.819-0.103-1.229-0.154c-41.984-6.093-71.936-19.866-74.138-36.096
						c-0.051-0.461-0.102-0.972-0.102-1.434v-0.461c0-0.512,0.051-1.024,0.102-1.536c0.051-0.512,0.102-1.024,0.256-1.536
						c0-0.154,0.051-0.359,0.102-0.512h242.279c0.111,0.427,0.096,0.869,0.167,1.298c0.126,0.623,0.207,1.255,0.244,1.894
						C377.553,222.205,377.6,222.33,377.6,222.464z"/>
				</g>
				<path style="fill:#E9E8E8;" d="M337.394,279.133v18.804c-9.796,2.962-21.034,5.395-33.33,7.167V286.3
					C316.36,284.528,327.598,282.095,337.394,279.133z"/>
			</g>
			<path style="opacity:0.3;fill:#040000;" d="M377.088,218.88v0.256C371.2,239.821,319.283,256,256,256
				c-63.283,0-115.2-16.179-121.088-36.864v-0.256H377.088z"/>
			<g>
				<g>
					<path style="fill:#666D75;" d="M377.6,143.104v67.226c0,2.15-0.512,4.25-1.434,6.298c-0.358,0.768-0.768,1.485-1.229,2.253
						C363.264,237.313,314.47,251.136,256,251.136c-58.471,0-107.264-13.824-118.938-32.256c-0.461-0.768-0.87-1.484-1.229-2.253
						c0-0.051-0.051-0.154-0.102-0.256c-0.205-0.46-0.409-0.973-0.563-1.484c-0.153-0.409-0.256-0.819-0.358-1.229
						c-0.051-0.154-0.102-0.358-0.102-0.512c-0.103-0.41-0.154-0.768-0.205-1.178c-0.051-0.564-0.102-1.076-0.102-1.639v-67.277
						c0.409-22.426,54.682-40.499,121.6-40.499c41.369,0,77.926,6.912,99.891,17.511c12.8,6.144,20.685,13.568,21.607,21.607
						C377.549,142.131,377.6,142.644,377.6,143.104z"/>
					<path style="opacity:0.1;fill:#E8E8E9;" d="M377.6,143.309v3.226c0,17.459-32.768,32.358-78.848,38.195
						c-13.312,1.639-27.699,2.56-42.752,2.56c-15.053,0-29.44-0.921-42.752-2.56c-46.08-5.837-78.848-20.736-78.848-38.195v-3.226
						c0,18.329,35.942,33.792,85.452,38.912c3.175,0.307,6.4,0.614,9.677,0.87c8.499,0.615,17.357,0.973,26.471,0.973
						c9.113,0,17.971-0.358,26.47-0.973c3.277-0.256,6.502-0.563,9.677-0.87C341.658,177.101,377.6,161.639,377.6,143.309z"/>
					<path style="fill:#E9E8E8;" d="M377.6,142.849v0.256c-0.308,18.381-36.148,33.894-85.453,39.117
						c-3.175,0.307-6.4,0.614-9.677,0.87c-8.499,0.615-17.357,0.973-26.47,0.973c-9.114,0-17.971-0.358-26.471-0.973
						c-3.277-0.256-6.502-0.563-9.677-0.87c-49.305-5.223-85.145-20.736-85.452-39.117v-0.256c0-22.733,54.425-41.216,121.6-41.216
						c40.55,0,76.442,6.759,98.56,17.101c13.824,6.451,22.272,14.387,22.938,22.938C377.6,142.029,377.6,142.439,377.6,142.849z"/>
				</g>
				<path style="fill:#E9E8E8;" d="M337.394,199.526v18.804c-9.796,2.962-21.034,5.395-33.33,7.167v-18.804
					C316.36,204.921,327.598,202.488,337.394,199.526z"/>
			</g>
		</g>
		<path style="opacity:0.2;fill:#FFFFFF;" d="M256,101.632v308.685c-42.548,0-80.026-7.322-101.735-18.432
			c-11.161-5.683-18.125-12.339-19.558-19.558c-0.205-0.922-0.307-1.843-0.307-2.765V302.08c0-0.153,0-0.256,0.051-0.409
			c-0.051-0.103-0.051-0.154,0-0.205c0-0.359,0.051-0.717,0.102-1.075c0-0.41,0.051-0.82,0.205-1.229
			c-0.051-0.102,0-0.204,0.051-0.307c0-0.154,0-0.256,0.102-0.359c0.051-0.358,0.153-0.665,0.256-1.024
			c0.154-0.461,0.358-0.973,0.563-1.485c-0.205-0.512-0.409-1.024-0.563-1.485c-0.153-0.511-0.307-0.973-0.41-1.484
			c0,0,0-0.051,0-0.103c-0.153-0.409-0.205-0.871-0.256-1.331c-0.051-0.563-0.102-1.075-0.102-1.638v-67.482
			c0-0.512,0.051-1.024,0.102-1.536c0.051-0.512,0.102-1.024,0.256-1.536c0-0.154,0.051-0.307,0.154-0.512
			c0.153-0.819,0.461-1.689,0.819-2.509c-0.205-0.46-0.409-0.973-0.563-1.484c-0.153-0.409-0.256-0.819-0.358-1.229
			c-0.051-0.154-0.102-0.358-0.102-0.512c-0.103-0.41-0.154-0.768-0.205-1.178c-0.051-0.564-0.102-1.076-0.102-1.639v-67.481
			C134.4,120.116,188.825,101.632,256,101.632z"/>
	</g>
</g>
</svg>
