<?xml version="1.0" encoding="iso-8859-1"?>
<!-- Generator: Adobe Illustrator 18.0.0, SVG Export Plug-In . SVG Version: 6.00 Build 0)  -->
<!DOCTYPE svg PUBLIC "-//W3C//DTD SVG 1.1//EN" "http://www.w3.org/Graphics/SVG/1.1/DTD/svg11.dtd">
<svg version="1.1" id="_x31_" xmlns="http://www.w3.org/2000/svg" xmlns:xlink="http://www.w3.org/1999/xlink" x="0px" y="0px"
	 viewBox="0 0 512 512" style="enable-background:new 0 0 512 512;" xml:space="preserve">
<g>
	<rect style="fill:#A0D7DC;" width="512" height="512"/>
	<path style="opacity:0.1;fill:#040000;" d="M342.579,198.503c0-0.051-0.051-0.103-0.103-0.154l-32.666-32.666
		c-0.487-0.303-0.998-0.569-1.491-0.864l0.006-0.006c-0.164-0.099-0.337-0.184-0.502-0.281c-1.479-0.873-2.972-1.721-4.497-2.52
		c-0.375-0.196-0.76-0.376-1.138-0.569c-1.414-0.717-2.835-1.419-4.286-2.07c-0.443-0.199-0.896-0.376-1.342-0.569
		c-1.426-0.616-2.856-1.219-4.314-1.77c-0.424-0.159-0.857-0.296-1.283-0.451c-1.508-0.546-3.022-1.078-4.561-1.552
		c-0.336-0.104-0.679-0.186-1.016-0.286c-0.223-0.066-0.451-0.119-0.674-0.184l-41.102-41.051l-0.445-0.445
		c-3.893-5.369-8.113-10.519-12.867-15.273c-11.52-11.52-24.986-20.582-39.987-26.931c-3.277-1.382-6.605-2.611-9.984-3.687
		c-1.894-0.614-3.789-1.229-5.734-1.741c-0.102-0.051-0.205-0.051-0.307-0.051l-8.704,8.704l1.434,1.434l76.083,76.083
		c-1.434,0.154-2.867,0.358-4.25,0.614c-9.858,1.756-19.204,4.984-27.873,9.368c-0.037,0.017-0.072,0.036-0.109,0.055
		c-2.284,1.158-4.518,2.396-6.7,3.717c-0.269,0.162-0.541,0.317-0.809,0.481c-2.205,1.363-4.37,2.783-6.46,4.304
		c-0.055,0.04-0.113,0.075-0.169,0.115c-1.809,1.321-3.576,2.696-5.292,4.13l0.029,0.029c-2.51,2.089-4.951,4.257-7.248,6.576
		c-18.432,18.586-29.85,44.083-29.85,72.141v115.302c0,12.595,2.97,24.576,8.192,35.226l7.219,7.219l29.593,29.594l0.103,0.103
		L270.899,512H512V367.872L342.579,198.503z"/>
	<g>
		<g>
			<g>
				<path style="fill:#FCFDFD;" d="M357.683,251.341v117.094c0,5.53-0.563,10.906-1.638,16.128c-0.512,2.611-1.177,5.171-1.997,7.68
					c-0.307,0.973-0.614,1.894-0.973,2.867c-0.256,0.769-0.512,1.485-0.819,2.202c-0.256,0.768-0.563,1.536-0.922,2.304
					c-0.358,0.819-0.717,1.689-1.127,2.509c-0.103,0.205-0.153,0.409-0.307,0.614c-0.512,1.024-0.973,2.048-1.536,3.021
					c-0.512,1.024-1.024,1.997-1.638,2.97c-0.512,0.87-1.024,1.74-1.587,2.56c-0.666,1.075-1.331,2.15-2.15,3.174
					c-0.359,0.666-0.819,1.28-1.331,1.895c-0.768,1.024-1.536,2.048-2.355,3.071c-1.638,1.997-3.379,3.891-5.222,5.684
					c-1.792,1.843-3.738,3.584-5.683,5.223c-5.99,4.915-12.646,8.96-19.814,12.032c-2.406,1.024-4.864,1.946-7.373,2.713
					c-1.28,0.41-2.509,0.769-3.789,1.076c-1.383,0.358-2.816,0.717-4.301,0.973c-1.638,0.358-3.379,0.614-5.069,0.87
					c-0.051,0-0.051,0-0.102,0c-1.741,0.256-3.482,0.41-5.223,0.512c-1.741,0.154-3.533,0.205-5.325,0.205h-42.803
					c-1.536,0-3.021-0.051-4.506-0.154c-0.717,0-1.382-0.051-2.048-0.153c-0.922-0.051-1.843-0.103-2.714-0.256
					c-0.666-0.051-1.331-0.154-1.996-0.256c-1.075-0.102-2.099-0.307-3.124-0.512c-0.512-0.051-1.075-0.204-1.638-0.307
					c-1.177-0.205-2.355-0.512-3.533-0.819c-1.127-0.256-2.253-0.563-3.328-0.922c-0.973-0.256-1.894-0.563-2.867-0.921
					c-2.918-0.973-5.786-2.151-8.55-3.482c-0.256-0.102-0.563-0.204-0.819-0.358c-1.229-0.615-2.406-1.229-3.584-1.895
					c-1.024-0.563-2.048-1.177-3.021-1.791c-0.768-0.461-1.485-0.922-2.253-1.434c-0.051,0-0.102-0.051-0.154-0.103
					c-1.843-1.177-3.635-2.457-5.325-3.84c-0.205-0.154-0.359-0.256-0.512-0.461c-0.615-0.409-1.178-0.921-1.741-1.382
					c-3.379-2.816-6.451-5.939-9.267-9.267c-1.024-1.178-1.997-2.406-2.97-3.686c-1.126-1.485-2.202-3.021-3.226-4.557
					c-1.792-2.714-3.43-5.581-4.864-8.499c-5.223-10.65-8.192-22.631-8.192-35.226V253.133c0-28.058,11.417-53.555,29.85-72.141
					c2.304-2.304,4.71-4.506,7.219-6.604c13.363-11.162,29.594-18.996,47.411-22.17c1.383-0.256,2.816-0.461,4.25-0.614
					c2.202-0.307,4.403-0.563,6.656-0.717c0.154-0.051,0.256-0.051,0.359-0.051h0.153c0.154-0.051,0.307-0.051,0.512-0.051
					l5.223-0.204h0.922c1.638,0,3.328,0.051,4.966,0.153c7.885,0.359,15.514,1.69,22.835,3.84
					c8.346,2.356,16.282,5.838,23.603,10.24c0.051,0.051,0.154,0.102,0.205,0.154c0.461,0.205,0.871,0.461,1.28,0.717
					c8.602,5.376,16.333,11.981,22.989,19.558c1.229,1.382,2.406,2.816,3.533,4.301c0.256,0.308,0.563,0.666,0.768,1.024
					c1.178,1.485,2.253,3.021,3.277,4.557c0.666,0.922,1.28,1.843,1.843,2.816c0.154,0.204,0.256,0.358,0.359,0.563
					c0.87,1.382,1.69,2.765,2.457,4.199c2.765,4.915,5.069,10.035,6.912,15.36c0.307,0.819,0.614,1.689,0.87,2.56
					c0.358,0.972,0.666,1.945,0.922,2.969c0.051,0.256,0.154,0.564,0.256,0.871c0.41,1.382,0.768,2.764,1.075,4.096
					c0.307,1.433,0.614,2.867,0.87,4.301c0.563,2.765,0.922,5.53,1.229,8.346c0.102,0.819,0.154,1.638,0.205,2.458
					c0.102,0.819,0.154,1.638,0.154,2.509C357.632,247.91,357.683,249.6,357.683,251.341z"/>
				<g>
					<path style="fill:#F0EFEF;" d="M267.162,185.446v1.382H255.59c0-6.707-0.614-13.209-1.741-19.609
						c-0.051-0.358-0.102-0.666-0.154-1.024c-0.307-1.741-0.666-3.43-1.126-5.12c-0.768-3.481-1.741-6.861-2.816-10.189v-0.051
						c-0.307-0.921-0.614-1.792-0.921-2.663l-0.051-0.051c-0.307-0.921-0.614-1.791-0.973-2.662
						c-4.813-12.339-11.725-23.706-20.224-33.536c-14.746-16.896-34.304-29.44-56.576-35.431c-1.331-0.358-2.663-0.665-3.993-0.973
						c-0.666-0.154-1.331-0.307-2.048-0.461c-0.563-0.154-1.075-0.256-1.638-0.358l2.099-11.418
						c3.021,0.614,5.939,1.229,8.857,2.099c0.102,0,0.205,0,0.307,0.051c1.946,0.512,3.84,1.126,5.734,1.741
						c3.379,1.076,6.707,2.304,9.984,3.687c15.002,6.349,28.467,15.411,39.987,26.931c4.915,4.916,9.37,10.138,13.312,15.718
						c5.478,7.527,10.035,15.668,13.671,24.32c1.075,2.509,2.048,4.967,2.816,7.527c0.051,0.051,0.051,0.051,0.051,0.051
						c0.614,1.741,1.178,3.533,1.741,5.324c2.407,7.936,3.994,16.077,4.71,24.371c0.154,1.741,0.256,3.482,0.359,5.222
						C267.059,182.016,267.11,183.706,267.162,185.446z"/>
				</g>
				<g>
					<path style="fill:#D0D0D0;" d="M261.888,150.732c-1.638-0.102-3.328-0.153-4.966-0.153H256l-5.223,0.204
						c-0.205,0-0.358,0-0.512,0.051h-0.563c-0.307-0.87-0.614-1.792-0.87-2.663l-0.051-0.051c-0.358-0.87-0.666-1.791-1.024-2.662
						c0,0,0,0,0.051,0c0.256-0.154,2.765-1.178,6.195-1.587c3.942-0.461,5.734,1.127,6.093,1.485
						c0.051,0.051,0.051,0.051,0.051,0.051C260.762,147.149,261.325,148.941,261.888,150.732z"/>
				</g>
				<path style="fill:#FCFDFD;" d="M357.683,251.341v117.094c0,5.53-0.563,10.906-1.638,16.128c-0.512,2.611-1.177,5.171-1.997,7.68
					c-0.307,0.973-0.614,1.894-0.973,2.867c-0.256,0.769-0.512,1.485-0.819,2.202c-0.256,0.768-0.563,1.536-0.922,2.304
					c-0.358,0.819-0.717,1.689-1.127,2.509c-0.103,0.205-0.153,0.409-0.307,0.614c-0.512,1.024-0.973,2.048-1.536,3.021
					c-0.512,1.024-1.024,1.997-1.638,2.97c-0.512,0.87-1.024,1.74-1.587,2.56c-0.666,1.075-1.331,2.15-2.15,3.174
					c-0.359,0.666-0.819,1.28-1.331,1.895c-0.768,1.024-1.536,2.048-2.355,3.071c-1.638,1.997-3.379,3.891-5.222,5.684
					c-1.792,1.843-3.738,3.584-5.683,5.223c-5.99,4.915-12.646,8.96-19.814,12.032c-2.406,1.024-4.864,1.946-7.373,2.713
					c-1.28,0.41-2.509,0.769-3.789,1.076c-1.383,0.358-2.816,0.717-4.301,0.973c-1.638,0.358-3.379,0.614-5.069,0.87
					c-0.051,0-0.051,0-0.102,0c-1.741,0.256-3.482,0.41-5.223,0.512c-1.741,0.154-3.533,0.205-5.325,0.205h-42.803
					c-1.536,0-3.021-0.051-4.506-0.154c-0.717,0-1.382-0.051-2.048-0.153c-0.922-0.051-1.843-0.103-2.714-0.256
					c-0.666-0.051-1.331-0.154-1.996-0.256c-1.075-0.102-2.099-0.307-3.124-0.512c-0.512-0.051-1.075-0.204-1.638-0.307
					c-1.177-0.205-2.355-0.512-3.533-0.819c-1.127-0.256-2.253-0.563-3.328-0.922c-0.973-0.256-1.894-0.563-2.867-0.921
					c-2.918-0.973-5.786-2.151-8.55-3.482c-0.256-0.102-0.563-0.204-0.819-0.358c-1.229-0.615-2.406-1.229-3.584-1.895
					c-1.024-0.563-2.048-1.177-3.021-1.791c-0.768-0.461-1.485-0.922-2.253-1.434c-0.051,0-0.102-0.051-0.154-0.103
					c-1.843-1.177-3.635-2.457-5.325-3.84c-0.205-0.154-0.359-0.256-0.512-0.461c-0.615-0.409-1.178-0.921-1.741-1.382
					c-3.379-2.816-6.451-5.939-9.267-9.267c-1.024-1.178-1.997-2.406-2.97-3.686c-1.126-1.485-2.202-3.021-3.226-4.557
					c-1.792-2.714-3.43-5.581-4.864-8.499c-5.223-10.65-8.192-22.631-8.192-35.226V253.133c0-28.058,11.417-53.555,29.85-72.141
					c2.304-2.304,4.71-4.506,7.219-6.604c13.363-11.162,29.594-18.996,47.411-22.17c1.383-0.256,2.816-0.461,4.25-0.614
					c2.202-0.307,4.403-0.563,6.656-0.717c0.154-0.051,0.256-0.051,0.359-0.051h0.153c0.154-0.051,0.307-0.051,0.512-0.051
					l5.223-0.204h0.922c1.638,0,3.328,0.051,4.966,0.153c7.885,0.359,15.514,1.69,22.835,3.84
					c8.346,2.356,16.282,5.838,23.603,10.24c0.051,0.051,0.154,0.102,0.205,0.154c0.461,0.205,0.871,0.461,1.28,0.717
					c8.602,5.376,16.333,11.981,22.989,19.558c1.229,1.382,2.406,2.816,3.533,4.301c0.256,0.308,0.563,0.666,0.768,1.024
					c1.178,1.485,2.253,3.021,3.277,4.557c0.666,0.922,1.28,1.843,1.843,2.816c0.154,0.204,0.256,0.358,0.359,0.563
					c0.87,1.382,1.69,2.765,2.457,4.199c2.765,4.915,5.069,10.035,6.912,15.36c0.307,0.819,0.614,1.689,0.87,2.56
					c0.358,0.972,0.666,1.945,0.922,2.969c0.051,0.256,0.154,0.564,0.256,0.871c0.41,1.382,0.768,2.764,1.075,4.096
					c0.307,1.433,0.614,2.867,0.87,4.301c0.563,2.765,0.922,5.53,1.229,8.346c0.102,0.819,0.154,1.638,0.205,2.458
					c0.102,0.819,0.154,1.638,0.154,2.509C357.632,247.91,357.683,249.6,357.683,251.341z"/>
				<path style="fill:#585B61;" d="M256.021,287.759L256.021,287.759c-5.824,0-10.59-4.765-10.59-10.59v-39.014
					c0-5.824,4.765-10.59,10.59-10.59l0,0c5.824,0,10.59,4.765,10.59,10.59v39.014C266.61,282.994,261.845,287.759,256.021,287.759z
					"/>
			</g>
			<path style="fill:#F4F4F5;" d="M357.681,251.333v117.094c0,44.135-36.147,80.282-80.282,80.282h-42.803
				c-28.058,0-52.838-14.592-67.174-36.557c84.633-45.056,146.893-128.051,165.376-226.918
				C348.26,202.949,357.681,226.092,357.681,251.333z"/>
		</g>
		<rect x="253.692" y="157.542" style="fill:#DCC67C;" width="4.657" height="66.56"/>
	</g>
</g>
</svg>
