<!--?xml version="1.0" encoding="utf-8"?-->
<!-- Generator: Adobe Illustrator 18.1.1, SVG Export Plug-In . SVG Version: 6.00 Build 0)  -->

<svg version="1.1" id="_x32_" xmlns="http://www.w3.org/2000/svg" xmlns:xlink="http://www.w3.org/1999/xlink" x="0px" y="0px" viewBox="0 0 512 512" style="width: 256px; height: 256px; opacity: 1;" xml:space="preserve">
<style type="text/css">
	.st0{fill:#4B4B4B;}
</style>
<g>
	<path class="st0" d="M101.095,73.069c-6.169-0.008-11.617-2.46-15.671-6.498c-4.038-4.062-6.49-9.511-6.498-15.68
		c0.008-6.17,2.46-11.617,6.49-15.68c4.062-4.03,9.51-6.481,15.679-6.497l346.336,0.007V0.007L101.095,0
		C72.99,0.016,50.22,22.786,50.211,50.892v410.216C50.22,489.214,72.99,511.984,101.095,512h360.694V73.069H101.095z
		 M433.074,483.285H101.095c-12.242-0.024-22.145-9.927-22.169-22.177V96.64c6.706,3.253,14.205,5.144,22.169,5.144h331.978V483.285
		z" style="fill: rgb(75, 75, 75);"></path>
</g>
</svg>
