<?xml version="1.0" encoding="iso-8859-1"?>
<!-- Generator: Adobe Illustrator 18.0.0, SVG Export Plug-In . SVG Version: 6.00 Build 0)  -->
<!DOCTYPE svg PUBLIC "-//W3C//DTD SVG 1.1//EN" "http://www.w3.org/Graphics/SVG/1.1/DTD/svg11.dtd">
<svg version="1.1" id="_x31_" xmlns="http://www.w3.org/2000/svg" xmlns:xlink="http://www.w3.org/1999/xlink" x="0px" y="0px"
	 viewBox="0 0 512 512" style="enable-background:new 0 0 512 512;" xml:space="preserve">
<g>
	<rect style="fill:#99D4D9;" width="512" height="512"/>
	<polygon style="opacity:0.1;fill:#040000;" points="512,253.337 512,512 185.702,512 108.954,435.251 104.397,430.694 
		104.397,76.749 335.411,76.749 339.149,80.486 403.814,145.151 407.603,148.94 	"/>
	<g>
		<g>
			<polygon style="fill:#FFFFFF;" points="407.603,145.151 407.603,435.251 104.397,435.251 104.397,76.749 339.149,76.749 			"/>
			<rect x="133.179" y="127.387" style="fill:#A6CE5B;" width="32.986" height="122.015"/>
			<rect x="186.518" y="182.027" style="fill:#A8D7F0;" width="32.284" height="67.376"/>
			<rect x="239.858" y="141.424" style="fill:#D9C866;" width="32.284" height="107.979"/>
			<rect x="293.197" y="165.182" style="fill:#EF8484;" width="32.284" height="84.22"/>
			<rect x="346.537" y="201.678" style="fill:#74C296;" width="32.284" height="47.725"/>
			<rect x="133.705" y="274.669" style="fill:#ECECEB;" width="244.59" height="21.542"/>
			<rect x="133.705" y="311.47" style="fill:#ECECEB;" width="244.59" height="21.542"/>
			<rect x="133.705" y="348.271" style="fill:#ECECEB;" width="244.59" height="21.542"/>
			<rect x="133.705" y="385.072" style="fill:#ECECEB;" width="244.59" height="21.542"/>
			<polygon style="fill:#ED6E55;" points="407.596,145.173 339.167,145.173 339.167,76.744 			"/>
		</g>
		<polygon style="opacity:0.1;fill:#0F0F0F;" points="407.603,145.151 407.603,435.251 256,435.251 256,76.749 339.149,76.749 		"/>
	</g>
</g>
</svg>
